# This file uses centimeters as units for non-parametric coordinates.

v 0.649040 0.722864 -0.211294
v 0.849687 0.511940 0.064793
v 0.401128 0.722894 0.551777
v 0.725740 0.511966 0.446311
v 0.324488 0.933740 -0.105841
v 0.200513 0.933751 0.275725
v -0.849737 0.511935 0.064820
v -0.725811 0.511949 0.446297
v -0.401215 0.722881 0.551768
v -0.649116 0.722842 -0.211288
v -0.200686 0.933726 0.275718
v -0.324652 0.933701 -0.105836
v -0.973751 -0.170619 0.105106
v -0.849756 -0.170641 0.486710
v -0.725823 0.170593 0.657292
v -0.973732 0.170639 -0.105824
v -0.000048 0.722831 -0.682853
v -0.324623 0.511914 -0.788311
v -0.649108 0.511918 -0.552566
v -0.000089 0.933709 -0.341648
v 0.725754 -0.170650 -0.657972
v 0.401145 -0.170650 -0.893812
v 0.849695 0.170595 -0.487388
v 0.200564 0.170591 -0.958983
v 0.324532 0.511922 -0.788323
v 0.649032 0.511933 -0.552583
v -0.200655 0.170589 -0.958974
v -0.401228 -0.170648 -0.893798
v 0.200520 -0.512025 -0.828581
v -0.200604 -0.512021 -0.828575
v 0.725743 -0.512017 -0.446970
v 0.401132 -0.722945 -0.552437
v 0.849677 -0.512006 -0.065481
v 0.973695 0.170571 -0.105810
v 0.973691 -0.170667 0.105118
v 0.324539 -0.933766 0.105191
v 0.649043 -0.722913 0.210634
v 0.649034 -0.511984 0.551921
v 0.324536 -0.511973 0.787661
v -0.000043 -0.722883 0.682193
v -0.000017 -0.933746 0.341031
v -0.200653 -0.170641 0.958314
v -0.324619 -0.511967 0.787652
v 0.200565 -0.170643 0.958322
v -0.649105 -0.511972 0.551908
v -0.401229 0.170595 0.893137
v 0.849705 -0.170667 0.486704
v 0.725774 0.170575 0.657295
v 0.401144 0.170598 0.893152
v 0.200515 0.511973 0.827922
v -0.200608 0.511968 0.827914
v -0.324536 -0.933770 0.105072
v -0.200620 -0.933805 -0.276337
v -0.649113 -0.722896 0.210628
v -0.849736 -0.511990 -0.065480
v -0.725801 -0.511988 -0.446989
v -0.401212 -0.722935 -0.552428
v -0.725817 -0.170619 -0.657966
v -0.849744 0.170607 -0.487384
v 0.200584 -0.933802 -0.276336
vt 0.011334 0.687063
vt 0.181228 0.982284
vt 0.521017 0.982284
vt 0.690911 0.687063
vt 0.521017 0.391842
vt 0.181228 0.391842
vt 0.521017 0.982284
vt 0.181228 0.391842
vt 0.011334 0.687063
vt 0.181228 0.982284
vt 0.521017 0.391842
vt 0.690911 0.687063
vt 0.521017 0.391842
vt 0.181228 0.391842
vt 0.521017 0.982284
vt 0.690911 0.687063
vt 0.011334 0.687063
vt 0.181228 0.982284
vt 0.521017 0.391842
vt 0.181228 0.391842
vt 0.011334 0.687063
vt 0.181228 0.982284
vt 0.521017 0.982284
vt 0.690911 0.687063
vt 0.979818 0.174325
vt 0.686152 0.028360
vt 0.470073 0.255253
vt 0.630194 0.541447
vt 0.945234 0.491429
vt 0.521017 0.391842
vt 0.181228 0.391842
vt 0.011334 0.687063
vt 0.690911 0.687063
vt 0.181228 0.982284
vt 0.521017 0.982284
vt 0.690911 0.687063
vt 0.011334 0.687063
vt 0.181228 0.982284
vt 0.521017 0.982284
vt 0.521017 0.391842
vt 0.181228 0.391842
vt 0.979818 0.174325
vt 0.686152 0.028360
vt 0.630194 0.541447
vt 0.945234 0.491429
vt 0.470073 0.255253
vt 0.521017 0.391842
vt 0.181228 0.982284
vt 0.521017 0.982284
vt 0.690911 0.687063
vt 0.181228 0.391842
vt 0.011334 0.687063
vt 0.686152 0.028360
vt 0.470073 0.255253
vt 0.630194 0.541447
vt 0.979818 0.174325
vt 0.945234 0.491429
vt 0.521017 0.391842
vt 0.181228 0.982284
vt 0.521017 0.982284
vt 0.690911 0.687063
vt 0.181228 0.391842
vt 0.011334 0.687063
vt 0.979818 0.174325
vt 0.686152 0.028360
vt 0.470073 0.255253
vt 0.630194 0.541447
vt 0.945234 0.491429
vt 0.181228 0.982284
vt 0.521017 0.982284
vt 0.181228 0.391842
vt 0.011334 0.687063
vt 0.979818 0.174325
vt 0.470073 0.255253
vt 0.630194 0.541447
vt 0.945234 0.491429
vt 0.011334 0.687063
vt 0.181228 0.982284
vt 0.521017 0.391842
vt 0.181228 0.391842
vt 0.521017 0.982284
vt 0.690911 0.687063
vt 0.011334 0.687063
vt 0.181228 0.982284
vt 0.979818 0.174325
vt 0.686152 0.028360
vt 0.470073 0.255253
vt 0.630194 0.541447
vt 0.945234 0.491429
vt 0.011334 0.687063
vt 0.181228 0.982284
vt 0.521017 0.982284
vt 0.690911 0.687063
vt 0.521017 0.391842
vt 0.181228 0.391842
vt 0.521017 0.982284
vt 0.181228 0.391842
vt 0.011334 0.687063
vt 0.181228 0.982284
vt 0.521017 0.391842
vt 0.690911 0.687063
vt 0.979818 0.174325
vt 0.686152 0.028360
vt 0.470073 0.255253
vt 0.630194 0.541447
vt 0.945234 0.491429
vt 0.521017 0.391842
vt 0.181228 0.391842
vt 0.686152 0.028360
vt 0.690911 0.687063
vt 0.521017 0.391842
vt 0.521017 0.982284
vt 0.690911 0.687063
vt 0.521017 0.391842
vt 0.181228 0.982284
vt 0.521017 0.982284
vt 0.690911 0.687063
vt 0.181228 0.391842
vt 0.011334 0.687063
vt 0.521017 0.391842
vt 0.181228 0.391842
vt 0.521017 0.982284
vt 0.690911 0.687063
vt 0.011334 0.687063
vt 0.181228 0.982284
vt 0.979818 0.174325
vt 0.686152 0.028360
vt 0.470073 0.255253
vt 0.630194 0.541447
vt 0.945234 0.491429
vt 0.521017 0.391842
vt 0.181228 0.982284
vt 0.521017 0.982284
vt 0.690911 0.687063
vt 0.181228 0.391842
vt 0.011334 0.687063
vt 0.979580 0.174207
vt 0.630150 0.541369
vt 0.945234 0.491429
vt 0.686152 0.028360
vt 0.470073 0.255253
vt 0.521017 0.391842
vt 0.181228 0.982284
vt 0.521017 0.982284
vt 0.690911 0.687063
vt 0.181228 0.391842
vt 0.011334 0.687063
vt 0.979818 0.174325
vt 0.686152 0.028360
vt 0.470073 0.255253
vt 0.630194 0.541447
vt 0.945234 0.491429
vt 0.521017 0.391842
vt 0.181228 0.982284
vt 0.521017 0.982284
vt 0.690911 0.687063
vt 0.181228 0.391842
vt 0.011334 0.687063
vt 0.979818 0.174325
vt 0.630194 0.541447
vt 0.945234 0.491429
vt 0.686152 0.028360
vt 0.470073 0.255253
vt 0.521017 0.391842
vt 0.181228 0.391842
vt 0.011334 0.687063
vt 0.690911 0.687063
vt 0.181228 0.982284
vt 0.521017 0.982284
vt 0.945234 0.491429
vt 0.979818 0.174325
vt 0.686152 0.028360
vt 0.630194 0.541447
vt 0.470073 0.255253
vt 0.521017 0.391842
vt 0.181228 0.391842
vt 0.011334 0.687063
vt 0.690911 0.687063
vt 0.181228 0.982284
vt 0.521017 0.982284
vn 0.731682 0.669268 0.129316
vn 0.398048 0.886036 0.237694
vn 0.501182 0.777650 0.379574
vn 0.668003 0.669273 0.325339
vn 0.461770 0.886024 0.041592
vn 0.628588 0.777636 -0.012579
vn -0.668076 0.669137 0.325468
vn -0.461778 0.886025 0.041490
vn -0.628648 0.777585 -0.012747
vn -0.731828 0.669121 0.129245
vn -0.398029 0.886033 0.237734
vn -0.501159 0.777610 0.379687
vn -0.850338 0.359259 0.384523
vn -0.914040 0.359181 0.188466
vn -0.914020 0.008201 0.405586
vn -0.850366 0.183409 0.493192
vn -0.977832 0.183591 0.100694
vn -0.977867 0.008192 0.209068
vn -0.349158 0.886010 -0.305083
vn -0.182273 0.885999 -0.426359
vn -0.182268 0.777575 -0.601794
vn -0.349132 0.669132 -0.656026
vn -0.516019 0.669119 -0.534794
vn -0.516023 0.777573 -0.359305
vn 0.102421 0.984696 0.141009
vn 0.165735 0.984695 -0.053922
vn -0.000065 0.984671 -0.174422
vn -0.165952 0.984657 -0.053950
vn -0.102585 0.984672 0.141056
vn 0.461795 0.358991 -0.811092
vn 0.628566 0.359002 -0.689944
vn 0.731670 0.183560 -0.656479
vn 0.398121 0.183629 -0.898766
vn 0.667934 0.008258 -0.744174
vn 0.501285 0.008237 -0.865243
vn 0.182265 0.777590 -0.601775
vn 0.515886 0.777616 -0.359410
vn 0.515883 0.669231 -0.534784
vn 0.349099 0.669208 -0.655966
vn 0.182242 0.886004 -0.426363
vn 0.349082 0.886006 -0.305180
vn 0.165754 0.488582 -0.856629
vn 0.102421 0.314210 -0.943812
vn -0.165853 0.488584 -0.856609
vn -0.000024 0.596317 -0.802749
vn -0.102515 0.314201 -0.943805
vn 0.103083 -0.359031 -0.927616
vn -0.103142 -0.008232 -0.994633
vn 0.103059 -0.008240 -0.994641
vn 0.206140 -0.183647 -0.961135
vn -0.103092 -0.359076 -0.927597
vn -0.206233 -0.183591 -0.961125
vn 0.471913 -0.314327 -0.823709
vn 0.637494 -0.314273 -0.703444
vn 0.637555 -0.488597 -0.595648
vn 0.369481 -0.488519 -0.790464
vn 0.471894 -0.596245 -0.649468
vn 0.914091 -0.358958 -0.188644
vn 0.914168 -0.008279 -0.405251
vn 0.977771 -0.008266 -0.209512
vn 0.977792 -0.183630 -0.101012
vn 0.850438 -0.358967 -0.384575
vn 0.850457 -0.183574 -0.492974
vn 0.865966 0.488478 -0.107202
vn 0.929213 0.314318 -0.194337
vn 0.865997 0.314253 -0.388966
vn 0.763478 0.488579 -0.422365
vn 0.763485 0.596252 -0.248141
vn 0.515828 -0.669284 0.534772
vn 0.349108 -0.669260 0.655908
vn 0.349140 -0.885942 0.305301
vn 0.515821 -0.777629 0.359474
vn 0.165719 -0.488512 0.856676
vn -0.102459 -0.314210 0.943808
vn -0.165788 -0.488571 0.856629
vn -0.000019 -0.596252 0.802797
vn -0.398077 -0.183569 0.898798
vn -0.501128 -0.008193 0.865334
vn -0.628557 -0.359136 0.689882
vn -0.461807 -0.359080 0.811046
vn 0.501276 -0.008235 0.865248
vn 0.398136 -0.183645 0.898756
vn 0.731667 -0.183566 0.656481
vn 0.667955 -0.008269 0.744156
vn 0.369400 0.488609 0.790446
vn 0.471891 0.314283 0.823738
vn 0.637572 0.314256 0.703382
vn 0.637613 0.488590 0.595591
vn 0.471857 0.596323 0.649423
vn -0.206268 0.183591 0.961118
vn -0.103158 0.008228 0.994631
vn 0.103075 0.008238 0.994640
vn 0.206168 0.183607 0.961136
vn 0.103050 0.359105 0.927591
vn -0.103122 0.359119 0.927577
vn 0.103089 0.669237 0.735863
vn -0.103184 0.886047 0.451966
vn -0.206295 0.777632 0.593912
vn -0.103148 0.669215 0.735875
vn 0.103093 0.886042 0.451998
vn 0.206195 0.777649 0.593923
vn -0.637672 0.488768 0.595383
vn -0.637740 0.314129 0.703286
vn -0.471782 0.314213 0.823827
vn -0.369328 0.488640 0.790460
vn -0.471839 0.596433 0.649335
vn 0.461794 -0.358939 0.811116
vn 0.628561 -0.358970 0.689965
vn 0.102402 -0.314238 0.943805
vn 0.182351 -0.777604 0.601731
vn 0.182361 -0.885941 0.426443
vn -0.668169 -0.008199 0.743965
vn -0.731825 -0.183442 0.656339
vn -0.398098 -0.886019 -0.237671
vn -0.731771 -0.669173 -0.129301
vn -0.668055 -0.669186 -0.325413
vn -0.501198 -0.777629 -0.379597
vn -0.461798 -0.886011 -0.041563
vn -0.628627 -0.777604 0.012651
vn -0.850351 -0.359157 -0.384590
vn -0.914056 -0.359107 -0.188533
vn -0.914007 -0.008148 -0.405617
vn -0.850359 -0.183404 -0.493207
vn -0.977830 -0.183552 -0.100785
vn -0.977857 -0.008128 -0.209116
vn -0.763364 -0.488678 0.422455
vn -0.865948 -0.314118 0.389184
vn -0.929317 -0.314184 0.194056
vn -0.865931 -0.488586 0.106993
vn -0.763411 -0.596362 0.248105
vn -0.349140 -0.885973 0.305209
vn -0.349133 -0.669186 0.655969
vn -0.515958 -0.669175 0.534783
vn -0.515950 -0.777591 0.359370
vn -0.182335 -0.885961 0.426412
vn -0.182344 -0.777591 0.601750
vn 0.000007 -1.000000 0.000093
vn 0.000007 -1.000000 0.000093
vn 0.000007 -0.984683 0.174352
vn -0.102402 -0.984720 -0.140855
vn 0.102407 -0.984722 -0.140841
vn 0.103055 -0.886015 -0.452058
vn -0.103099 -0.669278 -0.735825
vn 0.103049 -0.669300 -0.735812
vn 0.206098 -0.777665 -0.593936
vn -0.103086 -0.886022 -0.452037
vn -0.206189 -0.777650 -0.593925
vn -0.637663 -0.488667 -0.595475
vn -0.637703 -0.314158 -0.703306
vn -0.471849 -0.314228 -0.823784
vn -0.369401 -0.488626 -0.790435
vn -0.471869 -0.596357 -0.649383
vn 0.461875 -0.885967 -0.041646
vn 0.667953 -0.669340 -0.325304
vn 0.731615 -0.669337 -0.129333
vn 0.628573 -0.777650 0.012483
vn 0.398191 -0.885980 -0.237664
vn 0.501228 -0.777666 -0.379481
vn 0.865904 -0.488571 0.107278
vn 0.763518 -0.488564 0.422310
vn 0.763536 -0.596179 0.248158
vn 0.929193 -0.314287 0.194485
vn 0.866018 -0.314276 0.388901
vn -0.630892 0.369603 -0.682180
vn -0.453740 0.369522 -0.810909
vn -0.386049 0.183042 -0.904136
vn -0.740618 0.182924 -0.646548
vn -0.495554 -0.003265 -0.868571
vn -0.672958 -0.003255 -0.739673
vn -0.763364 0.596429 -0.248088
vn -0.763306 0.488750 -0.422478
vn -0.865937 0.314099 -0.389223
vn -0.865919 0.488621 -0.106926
vn -0.929317 0.314202 -0.194029
vn 0.914143 0.358902 0.188497
vn 0.850441 0.358969 0.384567
vn 0.850474 0.183538 0.492959
vn 0.977786 0.183704 0.100931
vn 0.914178 0.008236 0.405229
vn 0.977785 0.008207 0.209448
s 1
f 2/3/1 6/6/2 3/1/3 4/2/4
f 5/5/5 6/6/2 2/3/1 1/4/6
s 2
f 8/7/7 12/8/8 10/9/9 7/10/10
f 11/11/11 12/8/8 8/7/7 9/12/12
s 3
f 8/13/13 7/14/14 14/15/15 15/16/16
f 14/15/15 7/14/14 16/17/17 13/18/18
s 4
f 12/19/19 20/20/20 17/21/21 18/22/22
f 12/19/19 18/22/22 19/23/23 10/24/24
s 5
f 6/25/25 5/26/26 20/27/27 12/28/28
f 6/25/25 12/28/28 11/29/29
s 6
f 25/30/30 26/31/31 23/32/32 24/33/33
f 24/33/33 23/32/32 21/34/34 22/35/35
s 7
f 17/36/36 1/37/37 26/38/38 25/39/39
f 20/40/40 5/41/41 1/37/37 17/36/36
s 8
f 25/42/42 24/43/43 18/44/44 17/45/45
f 18/44/44 24/43/43 27/46/46
s 9
f 29/47/47 27/48/48 24/49/49 22/50/50
f 30/51/51 28/52/52 27/48/48 29/47/47
s 10
f 22/53/53 21/54/54 31/55/55 29/56/56
f 29/56/56 31/55/55 32/57/57
s 11
f 33/58/58 23/59/59 34/60/60 35/61/61
f 33/58/58 31/62/62 21/63/63 23/59/59
s 12
f 2/64/64 34/65/65 23/66/66
f 2/64/64 23/66/66 26/67/67 1/68/68
s 13
f 38/69/69 39/70/70 36/71/71 37/72/72
s 14
f 39/73/73 42/74/74 43/75/75 40/76/76
s 15
f 42/77/77 46/78/78 45/79/79 43/80/80
s 16
f 49/81/81 44/82/82 47/83/83 48/84/84
s 17
f 50/85/85 49/86/86 48/87/87
f 50/85/85 48/87/87 4/88/88 3/89/89
s 18
f 46/90/90 42/91/91 44/92/92 49/93/93
f 46/90/90 49/93/93 50/94/94 51/95/95
s 19
f 50/96/96 11/97/97 9/98/98 51/99/99
f 6/100/100 11/97/97 50/96/96 3/101/101
s 20
f 8/102/102 15/103/103 46/104/104
f 8/102/102 46/104/104 51/105/105 9/106/106
s 16
f 47/83/83 44/82/82 39/107/107 38/108/108
s 14
f 39/73/73 44/109/109 42/74/74
s 13
f 36/71/71 39/70/70 40/110/110 41/111/111
s 15
f 45/79/79 46/78/78 15/112/112 14/113/113
s 21
f 53/114/114 55/115/115 56/116/116 57/117/117
f 53/114/114 52/118/118 54/119/119 55/115/115
s 22
f 56/120/120 55/121/121 59/122/122 58/123/123
f 59/122/122 55/121/121 13/124/124 16/125/125
s 23
f 45/126/126 14/127/127 13/128/128 55/129/129
f 45/126/126 55/129/129 54/130/130
s 24
f 52/131/131 43/132/132 45/133/133 54/134/134
f 52/131/131 41/135/135 40/136/136 43/132/132
s 25
f 52/137/137 36/138/138 41/139/139
f 36/138/138 52/137/137 53/140/140 60/141/141
s 26
f 60/142/142 30/143/143 29/144/144 32/145/145
f 60/142/142 53/146/146 57/147/147 30/143/143
s 27
f 56/148/148 58/149/149 28/150/150 30/151/151
f 56/148/148 30/151/151 57/152/152
s 28
f 36/153/153 31/154/154 33/155/155 37/156/156
f 36/153/153 60/157/157 32/158/158 31/154/154
s 29
f 33/159/159 38/160/160 37/161/161
f 33/159/159 35/162/162 47/163/163 38/160/160
s 30
f 19/164/164 18/165/165 27/166/166 59/167/167
f 59/167/167 27/166/166 28/168/168 58/169/169
s 31
f 10/170/170 19/171/171 59/172/172 7/173/173
f 7/173/173 59/172/172 16/174/174
s 32
f 2/175/175 4/176/176 48/177/177 34/178/178
f 34/178/178 48/177/177 47/179/179 35/180/180
